<svg xmlns="http://www.w3.org/2000/svg" width="256" height="256" viewBox="0 0 100 100"><rect width="100" height="100" rx="20" fill="#000000"></rect><path fill="#db3eb1" d="M31.55 58.55L38.82 37.31L41.70 37.31L32.85 62.69L30.33 62.69L23.09 41.92L15.85 62.69L13.37 62.69L4.48 37.31L7.47 37.31L14.67 58.51L22.05 37.31L24.28 37.35L31.55 58.55ZM64.17 48.54L64.17 37.31L67.08 37.31L67.08 62.69L64.17 62.69L64.17 51.06L48.97 51.06L48.97 62.69L46.06 62.69L46.06 37.31L48.97 37.31L48.97 48.54L64.17 48.54ZM83.97 62.98Q80.44 62.98 77.83 61.39Q75.22 59.81 73.81 56.89Q72.41 53.98 72.41 50.02L72.41 50.02Q72.41 46.02 73.80 43.09Q75.18 40.15 77.79 38.59Q80.40 37.02 83.97 37.02L83.97 37.02Q87.53 37.02 90.14 38.59Q92.75 40.15 94.14 43.09Q95.52 46.02 95.52 49.98L95.52 49.98Q95.52 53.94 94.12 56.88Q92.71 59.81 90.10 61.39Q87.49 62.98 83.97 62.98L83.97 62.98ZM83.97 60.46Q88.00 60.46 90.25 57.74Q92.50 55.02 92.50 49.98L92.50 49.98Q92.50 44.94 90.27 42.24Q88.03 39.54 83.97 39.54L83.97 39.54Q79.93 39.54 77.68 42.26Q75.43 44.98 75.43 49.98L75.43 49.98Q75.43 54.99 77.68 57.72Q79.93 60.46 83.97 60.46L83.97 60.46Z"></path></svg>